<?xml version="1.0" standalone="no"?>
<!DOCTYPE svg PUBLIC "-//W3C//DTD SVG 1.1//EN" "http://www.w3.org/Graphics/SVG/1.1/DTD/svg11.dtd" >
<svg xmlns="http://www.w3.org/2000/svg">
<metadata>
Created by FontForge 20120731 at Thu Sep 29 18:36:38 2016
 By admin
</metadata>
<defs>
<font id="iconfont" horiz-adv-x="1024" >
  <font-face 
    font-family="iconfont"
    font-weight="500"
    font-stretch="normal"
    units-per-em="1024"
    panose-1="2 0 6 3 0 0 0 0 0 0"
    ascent="896"
    descent="-128"
    x-height="792"
    bbox="-2 -147 4801 896.75"
    underline-thickness="50"
    underline-position="-100"
    unicode-range="U+0078-E647"
  />
<missing-glyph horiz-adv-x="374" 
d="M34 0v682h272v-682h-272zM68 34h204v614h-204v-614z" />
    <glyph glyph-name=".notdef" horiz-adv-x="374" 
d="M34 0v682h272v-682h-272zM68 34h204v614h-204v-614z" />
    <glyph glyph-name=".null" horiz-adv-x="0" 
 />
    <glyph glyph-name="nonmarkingreturn" horiz-adv-x="341" 
 />
    <glyph glyph-name="x" unicode="x" horiz-adv-x="1001" 
d="M281 543q-27 -1 -53 -1h-83q-18 0 -36.5 -6t-32.5 -18.5t-23 -32t-9 -45.5v-76h912v41q0 16 -0.5 30t-0.5 18q0 13 -5 29t-17 29.5t-31.5 22.5t-49.5 9h-133v-97h-438v97zM955 310v-52q0 -23 0.5 -52t0.5 -58t-10.5 -47.5t-26 -30t-33 -16t-31.5 -4.5q-14 -1 -29.5 -0.5
t-29.5 0.5h-32l-45 128h-439l-44 -128h-29h-34q-20 0 -45 1q-25 0 -41 9.5t-25.5 23t-13.5 29.5t-4 30v167h911zM163 247q-12 0 -21 -8.5t-9 -21.5t9 -21.5t21 -8.5q13 0 22 8.5t9 21.5t-9 21.5t-22 8.5zM316 123q-8 -26 -14 -48q-5 -19 -10.5 -37t-7.5 -25t-3 -15t1 -14.5
t9.5 -10.5t21.5 -4h37h67h81h80h64h36q23 0 34 12t2 38q-5 13 -9.5 30.5t-9.5 34.5q-5 19 -11 39h-368zM336 498v228q0 11 2.5 23t10 21.5t20.5 15.5t34 6h188q31 0 51.5 -14.5t20.5 -52.5v-227h-327z" />
    <glyph glyph-name="uniE600" unicode="&#xe600;" 
d="M945 410q-22 73 -58.5 131t-77 92.5t-85.5 59t-84.5 35t-72.5 15.5t-51.5 5.5t-18.5 -0.5q294 -144 311 -365q8 -106 -44 -197l-3 -6l-278 284l106 117l-73 67l-57 -52l-108 1l-219 -222l133 -120l82 79l284 -275q-49 -33 -101 -44.5t-95.5 -5t-85 23t-73 38t-56 42.5
t-36.5 33.5t-13 14.5l-86 -76l65 -77l-11 -15q-14 1 -24.5 -1.5t-14.5 -6.5l-4 -3q-21 -21 -27 -40t-0.5 -32t15.5 -23t18 -14.5t9 -4.5q27 -5 43 0.5t25 16.5t12 24t3.5 21.5t0.5 9.5l17 21q67 -37 133 -57.5t116 -25t96.5 0t78 14.5t56.5 22t34.5 19t11.5 8l95 -89
l130 130l-85 93q1 0 12 19t26 51t26.5 75t14 91t-11.5 98zM945 410z" />
    <glyph glyph-name="uniE601" unicode="&#xe601;" 
d="M913 607l-3 22l-21 1q-4 0 -10.5 1t-21 6.5t-26 15t-22.5 29t-14 46.5l-2 15l-14 6q-261 96 -268 96h-8l-4 -3q-1 0 -9.5 -3t-25.5 -9.5t-43.5 -16t-72.5 -26.5t-103 -38l-14 -6l-2 -15q-3 -26 -13.5 -45.5t-21.5 -29t-25.5 -15.5t-21 -7t-12.5 -1l-21 -1l-3 -22
q-1 -6 -2 -19t-0.5 -49t4 -73.5t14 -89t27 -99.5t46.5 -101t69 -97.5t97.5 -85.5t128.5 -68l5 -2h24l5 2q71 27 129 67.5t97 85.5t69 98t46.5 101t27 99.5t14 89t4 73t-0.5 49t-2 19.5zM515 -26h-6q-250 98 -324 369q-32 117 -25 239q39 9 72.5 39t44.5 85q216 80 235 86
q38 -13 235 -86q11 -55 44.5 -85t72.5 -39q-1 -16 0.5 -40t-2.5 -57t-8.5 -70t-17.5 -78.5t-29 -82t-44 -81.5t-61.5 -77t-81.5 -68t-105 -54zM515 -26zM512 686l-82 -165l-182 -27l132 -128l-31 -182l163 86l163 -86l-31 182l132 128l-182 27zM512 686z" />
    <glyph glyph-name="uniE602" unicode="&#xe602;" 
d="M917 616q-9 31 -27 63l29 41q18 30 15 66q-9 39 -37 56l-61 44q-29 10 -49 10q-43 0 -70 -39l-29 -44h-20q-19 3 -37 3q-54 0 -78 -18l-3 -2q-4 -3 -9 -8.5t-7 -10.5l-51 -78q-4 -4 -8 -15q-46 -6 -87.5 -30.5t-68.5 -64.5l-190 -273q-53 -77 -35.5 -167t94.5 -143
l134 -95q53 -39 127 -39q54 0 102.5 26t79.5 72l186 273q57 84 31 182q10 10 13 18l51 78q2 2 7 12q13 19 -2 83zM529 386q-7 -11 -4 -22.5t14 -18.5l185 -132l-29 -41l-188 129q-10 5 -17 5q-16 0 -27 -15q-7 -11 -4 -22.5t14 -18.5l185 -129l-27 -39l-185 129q-10 5 -17 5
q-16 0 -27 -15q-7 -11 -4 -22.5t14 -18.5l183 -130l-20 -26q-22 -33 -57.5 -52t-76.5 -19q-48 0 -92 29l-134 95q-52 35 -69 105q-11 65 27 122l193 271q22 31 55 50t69 20q11 -8 48.5 -34t68.5 -47.5t32 -22.5q145 -101 148 -103q24 -81 -21 -141l-8 -12l-188 129
q-7 7 -19 7q-16 -5 -22 -15zM865 550q-21 -29 -56 -78l-280 195q55 79 59 83q14 7 46 7q1 0 8 -0.5t17 -1t16 -0.5q17 -3 25 -3h2q10 0 25 15q0 2 2 2l41 54q9 12 22 12q5 0 15 -5l61 -44q10 -5 10 -14q3 -9 -3 -20l-41 -56q-10 -20 0 -34q17 -26 29 -66q2 -9 3 -17t1 -13
t-0.5 -8.5t-0.5 -5.5z" />
    <glyph glyph-name="uniE603" unicode="&#xe603;" horiz-adv-x="1242" 
d="M1231 306q-12 41 -40.5 73.5t-67.5 52.5q-34 17 -82 17q-52 0 -92 -20l-14 -6l-3 17q-5 23 -14.5 45.5t-33 50.5t-54.5 44q-50 23 -97 23q-62 0 -114 -32t-80 -85q-18 -36 -25 -74.5t-6.5 -68.5t11.5 -70.5t20.5 -66.5t28.5 -71q1 -4 5 -13q18 -45 27.5 -70.5t21.5 -68.5
t17 -81q4 -18 20 -26q18 -9 31 0q36 21 81 39t72 25.5t81 21.5q38 10 60.5 16.5t56 17.5t55.5 24t47 30.5t43.5 41t33.5 52.5q37 82 11 162zM1157 173q-17 -33 -41.5 -57t-61 -40.5t-67.5 -26t-83 -22.5q-101 -24 -194 -62l-14 -6l-3 14q-8 32 -18 63t-25 71.5t-20 53.5
q-18 46 -25.5 66.5t-18 57t-10.5 59t5.5 52.5t20.5 58q19 37 54.5 58.5t76.5 21.5q35 0 65 -17q36 -18 55 -61.5t19 -86.5q0 -23 20 -31q20 -10 37 3q54 39 114 39q33 0 52 -11q52 -26 70.5 -83.5t-8.5 -112.5zM343 184q-40 28 -60 43t-53 41.5t-50 44.5t-39.5 45.5
t-34 52.5t-21.5 57t-13 66q-9 92 54 168q65 75 157 83h14q62 0 118.5 -40.5t89.5 -96.5q9 -17 31 -17q24 0 29 23q23 64 76.5 116t117.5 58h22q88 0 155 -60.5t73 -147.5q2 -14 12.5 -23t24.5 -9q32 5 32 37q-11 114 -97.5 192.5t-202.5 78.5h-28q-62 -6 -119 -45t-97 -103
l-9 -14l-11 11q-48 51 -105 79.5t-115 28.5h-20q-126 -13 -205 -105q-77 -95 -68 -219q3 -42 14.5 -79.5t26 -67.5t39 -61t45 -52.5t55 -49.5t57.5 -44.5t62 -44.5q120 -84 196 -157q9 -8 23.5 -8t25.5 11q10 11 9.5 24t-9.5 24q-66 61 -202 160z" />
    <glyph glyph-name="uniE604" unicode="&#xe604;" 
d="M149 -128h727q11 0 18.5 8t7.5 19v436h27q62 0 83 42q20 39 -29 87l-371 388q-40 44 -99.5 44t-100.5 -44l-43 -44l-5 5q-8 7 -20 7h-200q-11 0 -19 -7.5t-8 -18.5v-247l-78 -80q-43 -46 -29 -88q19 -44 85 -44h27v-436q0 -11 8 -19t19 -8zM634 -74h-109v246h109v-246z
M849 -74h-161v273q0 11 -8 19t-19 8h-166q-11 0 -18.5 -8t-7.5 -19v-273h-293v409h673v-409zM173 767h147v-10l-147 -154v164zM95 391q-8 0 -14.5 1.5t-10 2.5t-4.5 1l-5 3v5q0 6 17 26l373 386q21 24 61 24q37 0 61 -24l373 -388q17 -17 17 -27v-5l-4 -2q-5 -5 -30 -5h-834
v2z" />
    <glyph glyph-name="uniE605" unicode="&#xe605;" horiz-adv-x="1101" 
d="M110 538q0 -12 8.5 -21.5t19.5 -9.5h144q12 0 21 9t9 22q0 11 -8.5 20.5t-19.5 9.5h-143q-13 0 -22 -9t-9 -21zM952 -67h-801q-12 0 -20 -8.5t-8 -21.5q0 -12 8.5 -21.5t19.5 -9.5h801q12 0 20 8.5t8 22t-8 22t-20 8.5zM788 537.5q0 -11.5 8.5 -21t20.5 -9.5h140
q12 0 20.5 8.5t8.5 22.5q0 11 -8.5 20.5t-20.5 9.5h-140q-12 0 -20.5 -9.5t-8.5 -21zM1096 563l-180 318q-7 15 -25 15h-8h-2h-325h-11h-2h-323h-2q-22 4 -34 -15l-179 -318q-5 -10 -5 -15q0 -89 62 -152t148 -63q87 0 148.5 62.5t63.5 152.5q0 5 -5 15l-153 272h256v-791
h-174q-12 0 -20.5 -9t-8.5 -22q0 -12 8.5 -21.5t20.5 -9.5h412q13 0 20 10q8 8 8 21t-8.5 22t-19.5 9h-177v791h259l-156 -272q-6 -10 -6 -15q0 -88 62 -150.5t148.5 -62.5t148.5 62.5t64 152.5q0 3 -5 13zM361 540v-2q-4 -60 -48 -102t-103 -42q-60 0 -103.5 41t-47.5 103
v2l151 266zM1039 535q-3 -60 -47 -101.5t-104 -41.5t-103.5 41t-47.5 102v3l151 266l151 -266v-3z" />
    <glyph glyph-name="uniE606" unicode="&#xe606;" 
d="M707 323h-168v171q0 13 -8.5 21t-21 8t-21 -8t-8.5 -21v-171h-163q-11 0 -20 -8.5t-9 -20.5q0 -13 8 -21t21 -8h168v-171q0 -13 8.5 -21t21 -8t21 8t8.5 21v171h163q11 0 20 8t9 21t-8 21t-21 8zM931 716h-165v85q0 39 -27.5 67t-65.5 28h-317q-39 0 -66 -27.5t-27 -67.5
v-85h-170q-39 0 -66 -28.5t-27 -67.5v-653q0 -39 27 -67t66 -28h838q39 0 66 28t27 67v653q0 39 -27 67.5t-66 28.5zM319 801q0 15 11 25.5t26 10.5h317q15 0 25.5 -10.5t10.5 -25.5v-85h-390v85zM965 -33q0 -15 -10.5 -25.5t-25.5 -10.5h-836q-15 0 -26 10.5t-11 25.5v653
q0 15 11 26t26 11h838q15 0 26 -11t11 -26v-653h-3z" />
    <glyph glyph-name="uniE607" unicode="&#xe607;" 
d="M503 896q-100 0 -178 -49.5t-119 -132.5t-41 -183q0 -57 30 -128t75 -133.5t93 -116t86.5 -85t53.5 -31.5t54 31.5t86.5 85t92.5 116t75 133.5t30 128q0 100 -41 183t-119 132.5t-178 49.5zM503.5 420q-60.5 0 -104 41t-43.5 101t43.5 103.5t103.5 43.5t103.5 -43.5
t43.5 -103.5t-43 -101t-103.5 -41zM245 152q-200 -42 -200 -124q0 -48 63 -84t168.5 -54t235.5 -18t235.5 18t168.5 54t63 84q0 91 -213 133q-13 4 -25 -4.5t-15 -21.5q-4 -13 4.5 -25t21.5 -15q70 -13 113 -33t43 -34q0 -6 -18 -18q-6 -5 -16 -9.5t-18.5 -8t-25 -9
t-24.5 -9.5q-121 -35 -294 -35q-170 0 -298 35q-42 12 -80 32q-3 1 -7.5 4t-6.5 4.5t-4.5 3t-3.5 3t-1 2.5q0 7 16.5 18t50.5 23.5t76 21.5q13 3 21.5 15t4.5 25q0 16 -10.5 23t-24.5 3z" />
    <glyph glyph-name="uniE608" unicode="&#xe608;" 
d="M918 25l-139 300l-9 -5q-4 -2 -6 -7l-35 -53q-17 -27 -50 -28l-65 -3q-4 0 -9 -2l-9 -5l-65 -140l90 -193q6 -15 22.5 -16.5t25.5 11.5l68 96q13 17 24 11l130 -4q16 -1 24.5 12t2.5 26zM547 197q-14 -6 -29 -6t-28 6l-17 9l-41 21q-5 2 -10 2l-65 3q-32 1 -49 28l-35 53
q-2 4 -7 7l-18 11l-142 -306q-6 -13 2.5 -25.5t23.5 -12.5h1l130 4h1q15 0 23 -12l68 -95q8 -12 23 -12q18 0 26 16l108 234l35 75v0zM207 491q5 -11 6 -24l3 -63q1 -15 13 -22l4 -3l14 -9l14 -9l22 -13q11 -7 17 -17l35 -54q8 -12 23 -12l65 -3q12 0 24 -6l3 -2l54 -28
q6 -3 13 -3q8 0 13 3l38 20l20 10q2 1 5 2q9 4 19 4h1l64 3q14 1 22 12l35 54q7 10 17 17l13 7l42 27q13 7 13 22l3 63q0 12 6 23l30 57q7 13 0 25l-29 57q-6 10 -7 23l-2 63q-1 15 -13 22l-55 34q-11 7 -17 17l-35 54q-9 12 -23 12l-65 3q-12 1 -24 6l-57 30q-7 3 -13 3
q-8 0 -13 -3l-58 -29q-12 -6 -24 -7l-65 -2q-15 -1 -22 -13l-35 -54q-7 -10 -17 -16l-55 -35q-13 -7 -13 -21l-3 -64q-1 -12 -6 -23l-30 -57q-7 -12 0 -25z" />
    <glyph glyph-name="uniE609" unicode="&#xe609;" horiz-adv-x="1287" 
d="M1285 250l-745 -150q-29 -92 6 -178l730 165l10 -46l-748 -169l-22 4l-492 305q-47 106 0 189l48 7v-16l631 -141q34 84 4 148l-640 128l6 45l3 1h1l38 12l1 39l587 -142q28 78 4 136l-592 131v60l466 118l540 -110q37 -68 0 -150l-39 -22l72 -12q40 -71 0 -162l-118 -73
l251 -69zM577 -15l2 -11l680 140l-3 12zM575 31l2 -11l680 140l-3 12zM572 72l3 -13l679 140l-2 14z" />
    <glyph glyph-name="uniE60A" unicode="&#xe60a;" horiz-adv-x="1093" 
d="M678 384q5 -15 5 -34q0 -56 -40.5 -96.5t-96.5 -40.5t-96 40.5t-40 96.5q0 19 5 34h-74h-341v-375q0 -57 40 -97t97 -40h819q56 0 96 40t40 97v375h-375h-39zM956 759h-205v69q0 28 -20 48t-48 20h-273q-29 0 -49 -20t-20 -48v-69h-204q-57 0 -97 -40t-40 -96v-171h341
h376h375v171q0 56 -40 96t-96 40zM683 759h-273v35q0 14 10 24t24 10h204q15 0 25 -10t10 -24v-35zM614 350q0 18 -10 34h-118q-10 -20 -10 -34q0 -28 20 -48t48.5 -20t49 20t20.5 48z" />
    <glyph glyph-name="uniE60B" unicode="&#xe60b;" horiz-adv-x="1076" 
d="M740 896q-16 0 -27 -11t-11 -27v-948q0 -16 11 -27t27 -11t27 11t11 27v948q0 16 -11 27t-27 11zM845 874q-7 0 -12 -5t-5 -12v-946q0 -7 5 -12t12 -5t11.5 5t4.5 12v946q0 7 -4.5 12t-11.5 5zM934.5 874q-6.5 0 -11.5 -5t-5 -12v-946q0 -7 5 -12t11.5 -5t11.5 5t5 12
v946q0 7 -5 12t-11.5 5zM1037 896q-16 0 -27.5 -11t-11.5 -27v-948q0 -16 11.5 -27t27.5 -11t27 11t11 27v948q0 16 -11 27t-27 11zM561 895h-144q-28 0 -48 -20t-20 -49l-1 -883q0 -28 20.5 -48t48.5 -21h144q28 0 48.5 20.5t20.5 48.5v882q0 29 -20 49.5t-49 20.5z
M547 565h-116q-10 0 -17 7t-7 17t7 17t17 7h116q10 0 17 -7t7 -17q1 -10 -6.5 -17t-17.5 -7zM548 668h-117q-10 0 -17 7t-7 17t7 17t17 7h117q10 0 17 -7.5t7 -17t-7 -16.5t-17 -7zM213 895h-144q-28 0 -48.5 -20t-20.5 -49v-882q0 -29 20 -49t49 -20h143q28 0 48.5 20
t20.5 48v883q0 28 -20 48.5t-48 20.5zM199 565h-116q-10 0 -17 7t-7 17t7 17t17 7h116q10 0 17 -7t7 -17t-7 -17t-17 -7zM199 668h-116q-10 0 -17 7t-7 17t7 17t17 7h116q10 0 17 -7.5t7 -17t-7 -16.5t-17 -7z" />
    <glyph glyph-name="uniE60C" unicode="&#xe60c;" horiz-adv-x="1366" 
d="M1280 -128h-1195q-35 0 -60 25t-25 60v854q0 35 25 60t60 25h1195q35 0 60 -25t25 -60v-853q0 -36 -25 -61t-60 -25zM853 469h427v86h-427v-86zM768 725h-597v-597h597v597zM1280 725h-427v-85h427v85zM1280 384h-427v-85h427v85zM427 293v14q-38 14 -61.5 46.5
t-23.5 72.5v86q0 53 37 90.5t90.5 37.5t91 -37.5t37.5 -90.5v-86q0 -41 -24 -73t-62 -46v-14q79 -16 127 -80h-127h-85h-127q48 64 127 80z" />
    <glyph glyph-name="uniE60D" unicode="&#xe60d;" 
d="M985 193l-282 -282q-39 -39 -94 -39t-94 39l-282 282q-39 39 -39 94t39 94l282 282q39 39 94 39t94 -39l282 -282q39 -39 39 -94t-39 -94zM593 178l-94 94q-19 19 -46.5 19t-47 -19.5t-19.5 -47t19 -46.5l94 -94q20 -20 47.5 -20t46.5 19.5t19 47t-19 47.5zM170 382
q-20 -20 -47.5 -20t-47 19.5t-19.5 47t20 47.5l344 344q20 20 47.5 20t47 -19.5t19.5 -47t-20 -47.5zM79 755l-66 65q-13 13 -13 31.5t13 31.5t31.5 13t31.5 -13l65 -66q53 36 116 42t120 -19l-321 -321q-25 57 -19 120t42 116z" />
    <glyph glyph-name="uniE60E" unicode="&#xe60e;" horiz-adv-x="4802" 
d="M0 896l2405 -1024l2396 1024h-4801z" />
    <glyph glyph-name="uniE60F" unicode="&#xe60f;" horiz-adv-x="1025" 
d="M1014 -118q-9 -10 -23 -10t-24 10l-265 261q-118 -95 -271 -95q-117 0 -216.5 57t-157 154.5t-57.5 212.5t58 212.5t157 154.5t216 57t216.5 -57t157 -154.5t57.5 -212.5q0 -163 -111 -284l264 -260q10 -10 9.5 -23.5t-10.5 -22.5zM431 831q-99 0 -183 -48t-132.5 -130.5
t-48.5 -180.5t48.5 -180.5t132.5 -130.5t183 -48t183 48t133 131t49 180q0 98 -49 180.5t-133 130.5t-183 48z" />
    <glyph glyph-name="uniE610" unicode="&#xe610;" 
d="M808 243q-9 9 -17 9q-10 0 -16 -6t-6 -16q0 -9 9 -17q8 -8 24.5 -32t35 -58t29.5 -76.5t4 -76.5q-50 -31 -175 -45t-261 -7t-221 30q-21 6 -34.5 12.5t-18 9.5t-4.5 5q-2 64 14 120t40 91.5t57 65t56 43t45 22.5q68 -37 147 -37q127 0 217 90t90 218q0 84 -42 155
t-114 112t-156 41q-127 0 -216 -90t-89 -218q0 -72 31 -135.5t86 -106.5q-27 -14 -53.5 -32t-58 -51.5t-54.5 -72.5t-37 -96.5t-11 -123.5v-4q7 -31 62 -50q52 -21 148.5 -32.5t204.5 -11.5q128 0 230 17t146 51l6 4l3 7q9 34 3 72.5t-18 73t-30 66t-32.5 51.5t-23.5 29z
M249 588q0 110 77 187t185 77q110 0 187 -77t77 -187t-77 -187t-187 -77q-76 0 -142 41v0q-55 37 -87.5 95.5t-32.5 127.5z" />
    <glyph glyph-name="uniE611" unicode="&#xe611;" 
d="M512 896q-139 0 -257 -68.5t-186.5 -186.5t-68.5 -257t68.5 -257t186.5 -186.5t257 -68.5q148 0 270.5 77t186.5 206q4 8 4 10q0 9 -5.5 14.5t-15.5 5.5q-15 0 -18 -14q-60 -116 -173 -187t-249 -71q-96 0 -183 37.5t-150 100.5t-100.5 150t-37.5 183t37.5 183t100.5 150
t150 100.5t183 37.5t183 -37.5t150 -100.5t100.5 -150t37.5 -183q0 -9 5.5 -14.5t15 -5.5t15 5.5t5.5 14.5q0 104 -40.5 199t-109 163.5t-163.5 109t-199 40.5zM414 693q-4 0 -6 -2q-94 -32 -152.5 -114.5t-58.5 -184.5q0 -85 42.5 -158.5t115.5 -116t159 -42.5t159 42.5
t115.5 116t42.5 158.5q0 92 -48 168t-128 117q-2 2 -8 2q-9 0 -14.5 -5.5t-5.5 -15.5q0 -13 16 -20q67 -34 108.5 -100.5t41.5 -145.5q0 -113 -81.5 -194.5t-195.5 -81.5t-197 81.5t-83 194.5q0 88 50 158.5t130 99.5q7 0 12.5 6.5t5.5 14.5q0 9 -5.5 15.5t-14.5 6.5z
M446 259q33 -16 66 -16q58 0 99.5 41.5t41.5 99.5t-41.5 99.5t-99.5 41.5q-56 0 -96.5 -37.5t-44.5 -93.5v0v0q0 -8 5.5 -14t14.5 -6t15 5.5t6 14.5q3 39 31.5 65.5t68.5 26.5q41 0 70.5 -29t29.5 -70.5t-29.5 -71t-70.5 -29.5q-32 0 -59 20q-7 6 -15 6q-9 0 -14.5 -5.5
t-5.5 -14.5q0 -4 2 -6q0 -2 -0.5 -5t6.5 -9t20 -13z" />
    <glyph glyph-name="uniE612" unicode="&#xe612;" horiz-adv-x="1227" 
d="M1161 754h-340v36q0 19 -3 34.5t-11.5 26.5t-16 19t-22.5 13t-26 7.5t-31.5 4t-32.5 1.5h-37h-53h-38q-12 0 -33 -1.5t-31.5 -4t-26 -7.5t-23.5 -13t-16 -19t-11 -26.5t-3 -34.5v-36h-340q-27 0 -46.5 -19.5t-19.5 -46.5v-486q0 -20 11 -37t30 -24v-203q0 -27 19.5 -46.5
t45.5 -19.5h1014q27 0 46.5 19.5t19.5 46.5v203q41 16 41 61v486q0 27 -20 46.5t-46 19.5zM456 790q0 36 18 45q20 10 89 10h25h3h48h2h26q68 0 88 -10q18 -9 18 -45v-36h-317v36zM1136 -62q0 -6 -5 -10.5t-11 -4.5h-1014q-5 0 -10 4.5t-5 10.5v198h1045v-198zM1176 202
q0 -6 -4.5 -11t-10.5 -5h-1095q-6 0 -10.5 5t-4.5 11v486q0 6 4.5 10.5t10.5 4.5h1095q6 0 10.5 -4.5t4.5 -10.5v-486zM720 285q0 15 -10 25.5t-26 10.5h-142q-15 0 -25 -10.5t-10 -25.5v-51q0 -11 7 -18t18.5 -7t18.5 7t7 18v36h111v-36q0 -11 7 -18t18.5 -7t18.5 7t7 18
v51zM507 29q0 -15 10 -25t25 -10h142q16 0 26 10t10 25v51q0 11 -7 18t-18.5 7t-18.5 -7t-7 -18v-36h-111v36q0 11 -7 18t-18.5 7t-18.5 -7t-7 -18v-51z" />
    <glyph glyph-name="uniE613" unicode="&#xe613;" horiz-adv-x="1345" 
d="M1335 390l-648 501q-1 0 -2 1.5t-2 1.5h-3h-4h-5h-2l-5 -3l-655 -501q-7 -5 -8.5 -15.5t4 -17.5t16 -8.5t17.5 3.5l635 490l633 -492q7 -6 17.5 -5t15.5 10q13 21 -4 35zM1097 432q-11 0 -17.5 -6.5t-6.5 -16.5v-490h-802v490q0 10 -6.5 16.5t-17 6.5t-17 -6.5
t-6.5 -16.5v-513q0 -11 6.5 -17.5t16.5 -6.5h850q11 0 17.5 6.5t6.5 17.5v513q0 10 -6.5 16.5t-17.5 6.5zM871 37q11 0 17.5 6.5t6.5 16.5v142q-4 88 -68.5 149.5t-153 61.5t-153.5 -61.5t-68 -149.5v-142q0 -10 6.5 -16.5t17 -6.5t17 6.5t6.5 16.5v132q0 73 51 123.5
t123.5 50.5t123 -50.5t50.5 -123.5v-132q0 -9 7 -16t17 -7z" />
    <glyph glyph-name="uniE614" unicode="&#xe614;" horiz-adv-x="1345" 
d="M1087 480q-6 81 -36.5 154.5t-83 132.5t-133 94t-178.5 35q-122 0 -222.5 -55.5t-160 -153.5t-64.5 -219q-64 -20 -113.5 -70.5t-72.5 -108.5t-23 -113q0 -79 39.5 -149.5t106.5 -112.5t142 -42h768q74 0 142 47.5t107 118t39 138.5q0 60 -23 115.5t-60 95t-83 65
t-91 28.5zM1056 -96h-768q-102 0 -179 81.5t-77 190.5q0 30 10 65.5t31.5 72.5t50.5 66.5t72 48.5t92 19h48q6 0 11 4.5t5 11.5t-5 11.5t-11 4.5h-48q-22 0 -47 -5q5 74 35 142.5t80.5 124t128.5 89t171 33.5q80 0 147 -24t113 -64.5t78 -94.5t47 -113t15 -120v-48
q0 -7 4.5 -11.5t11 -4.5t11.5 4.5t5 11.5v48q37 -4 76 -25t72 -55t54.5 -84.5t21.5 -107.5q0 -61 -34.5 -124t-95 -105.5t-126.5 -42.5z" />
    <glyph glyph-name="uniE615" unicode="&#xe615;" 
d="M511.5 691q-70.5 0 -120.5 -50t-50 -120.5t50 -120.5t120.5 -50t120.5 50t50 120.5t-50 120.5t-120.5 50zM511.5 419q-42.5 0 -72.5 30t-30 72.5t30 72.5t72.5 30t72.5 -30t30 -73q0 -42 -30 -72t-72.5 -30zM512 896q-102 0 -188.5 -50t-136.5 -136.5t-50 -188.5
q0 -100 50 -188l236 -410q14 -23 37.5 -37t51.5 -14t51.5 14t37.5 37l236 410q50 87 50 188q0 102 -50 188.5t-136.5 136.5t-188.5 50zM777 368l-235 -410q-10 -17 -30 -17t-30 17l-237 409q-41 71 -41 153q0 127 90 217t217 90t217 -90t90 -217q0 -82 -41 -152z" />
    <glyph glyph-name="uniE616" unicode="&#xe616;" horiz-adv-x="1103" 
d="M992 896h-882q-45 0 -77.5 -33t-32.5 -79v-563q0 -46 32.5 -79t77.5 -33h882q46 0 78.5 33t32.5 79v563q0 46 -32.5 79t-78.5 33zM642 30h-182q-1 -5 -4 -12t-15.5 -25t-27.5 -32t-41.5 -25t-56.5 -11v-53h473v53q-23 0 -43 5.5t-34 15t-26 20.5t-20 22t-13 20.5t-7 15.5
zM513 302l-79 -79l-80 79l-158 159l79 79l159 -159l394 394l79 -79z" />
    <glyph glyph-name="uniE617" unicode="&#xe617;" horiz-adv-x="1039" 
d="M518.5 896q-104.5 0 -199 -40.5t-163.5 -109t-109.5 -163.5t-40.5 -199t40.5 -199t109.5 -163.5t163.5 -109t199 -40.5t199 40.5t163 109t109 163.5t40.5 199t-40.5 199t-109 163.5t-163 109t-199 40.5zM379 67q-10 39 -39 62l-158 63q-9 4 -19 20l-94 187
q-6 12 -1.5 24.5t16 18t24 1.5t17.5 -15l61 -118q-8 -7 -9 -14q-7 -17 -2 -32t18 -21l124 -54q4 -1 5.5 2t-2.5 5l-118 51q-13 6 -18 19.5t2 26.5q5 14 18.5 19.5t27.5 -0.5l115 -50q19 -6 29 -9q32 -5 34 -6q22 -6 49 -52t42.5 -86.5t15.5 -43.5q-4 2 -138 2zM513 268
q-83 41 -142 90.5t-84.5 96.5t-30 91.5t14 79.5t54.5 56q51 28 101.5 15t86.5 -62q36 49 86.5 62t101.5 -15q37 -21 55.5 -56t14 -79.5t-30.5 -91.5t-84.5 -96.5t-142.5 -90.5zM874 212q-7 -15 -18 -20l-158 -61q-11 -9 -16 -14t-12 -18t-11 -31q1 0 -7 0h-20h-26h-30h-27
h-19h-8q3 7 7 18.5t17 41t25.5 53t29 44.5t30.5 25q2 0 33 6l30 9l115 50q13 6 26.5 0t19.5 -19.5t1 -27.5t-18 -18l-117 -52q-4 -1 -2.5 -4t4.5 -2l122 51q13 6 18 21t-2 32q-5 10 -9 14l61 118q5 11 17.5 15t24 -1.5t16 -18t-1.5 -24.5z" />
    <glyph glyph-name="uniE618" unicode="&#xe618;" horiz-adv-x="1261" 
d="M1181 738h-315v79q0 33 -23 56t-55 23h-316q-32 0 -55 -23t-23 -56v-78h-315q-33 0 -56 -23.5t-23 -55.5v-709q0 -32 23 -55t56 -23h1102q32 0 55 23t23 55v709q1 32 -22.5 55t-55.5 23zM472 817h315v-79h-314zM1181 424h-158v-118q0 -17 -11.5 -28.5t-27.5 -11.5h-79
q-16 0 -27.5 11.5t-11.5 28.5v118h-472v-118q0 -17 -11.5 -28.5t-28.5 -11.5h-78q-17 0 -28.5 11.5t-11.5 28.5v118h-157v78h1102v-78z" />
    <glyph glyph-name="uniE619" unicode="&#xe619;" 
d="M906 105q6 -17 8 -39q3 -16 3 -47q0 -23 -4 -45q-5 -25 -11 -32q-4 -7 -28 -15q-29 -10 -59 -15l-23 -4q-12 -3 -28.5 -6t-25.5 -5q-41 -7 -86 -12q-17 -2 -48.5 -4.5t-34.5 -3.5q-54 -2 -68 -2q-16 0 -67 2q-2 1 -32 3.5t-46 4.5q-30 3 -79 11q-47 8 -71 13
q-30 6 -53 13q-24 6 -29 10q-10 8 -16 50q-5 41 4 108q6 36 31 56q39 21 58 27q31 12 67 20q40 12 61 27q17 10 31 24q13 13 16 22q4 6 7 21q2 12 0 24l-89 13q-19 15 -32 39q-11 21 -21 59q-9 36 -9 97q0 56 5 104q6 58 25 106q22 53 59 91q38 40 107 60q18 7 40 9
q14 2 38 4q4 3 17 3h22q51 0 89 -20q40 -21 69 -54q28 -30 49 -75q20 -42 32 -84q13 -42 16 -82q4 -40 4 -66q-4 -48 -13 -78q-7 -26 -21 -59q-17 -33 -30 -51l-99 -16q-1 -9 2 -27q1 -13 10 -26q7 -12 23 -26q16 -12 40 -21q27 -12 55 -19q20 -5 58 -19q25 -9 49 -27
q21 -18 28 -41zM519 -60q4 0 15 7q10 6 20 16q12 12 18 19q8 10 8 14l-3 22q-2 6 -4 17t-3 16l-8 37q-1 6 -3.5 15t-2.5 13q6 5 17 18q8 10 8 20q0 9 -5 16q-8 11 -12 15q-4 3 -11 8.5t-8 6.5h-51q-13 -10 -16 -15q-7 -6 -11 -15q-5 -7 -5 -17q0 -3 6 -15q11 -13 19 -20
q-1 -3 -3.5 -11.5t-4.5 -13.5q0 -2 -4 -15t-5 -21q-6 -18 -8 -36q-4 -16 -4 -26q0 -5 8 -15q7 -9 19 -18q8 -8 21 -16q5 -6 13 -6z" />
    <glyph glyph-name="uniE61A" unicode="&#xe61a;" horiz-adv-x="1091" 
d="M1081 472l-460 397q-31 27 -76 27t-76 -27l-460 -397q-8 -7 -9 -18t6 -19t18 -9t19 6l68 59v-462q0 -65 52.5 -110.5t126.5 -45.5h509q74 0 126.5 45.5t52.5 110.5v462l68 -59q8 -6 18 -6q12 0 19 9q8 8 7 19t-9 18zM517 304h-145v144h145v-144zM715 304h-145v144h145
v-144zM517 112h-145v145h145v-145zM715 112h-145v145h145v-145z" />
    <glyph glyph-name="uniE61B" unicode="&#xe61b;" 
d="M969 38h-32v457q0 21 -14.5 35.5t-35.5 14.5h-224v301q0 21 -15 35.5t-36 14.5h-495q-21 0 -36 -14.5t-15 -35.5v-808h-11q-21 0 -35.5 -14.5t-14.5 -35.5v-66q0 -21 14.5 -35.5t35.5 -14.5h914q21 0 35.5 14.5t14.5 35.5v66q0 21 -15 35.5t-35 14.5v0zM519 221
q0 -20 -14.5 -35t-35.5 -15h-209q-21 0 -35.5 15t-14.5 35v15q0 21 14.5 36t35.5 15h209q21 0 35.5 -15t14.5 -36v-15zM519 440q0 -21 -14.5 -35.5t-35.5 -14.5h-209q-21 0 -35.5 14.5t-14.5 35.5v15q0 21 14.5 35.5t35.5 14.5h209q21 0 35.5 -14.5t14.5 -35.5v-15zM519 676
q0 -21 -14.5 -36t-35.5 -15h-209q-21 0 -35.5 15t-14.5 36v15q0 21 14.5 35.5t35.5 14.5h209q21 0 35.5 -14.5t14.5 -35.5v-15zM839 132h-134q-17 0 -29.5 12t-12.5 29.5t12.5 30t29.5 12.5h134q17 0 29.5 -12.5t12.5 -29.5q-1 -18 -13 -30t-29 -12zM839 301h-134
q-17 0 -29.5 12t-12.5 29.5t12.5 30t29.5 12.5h134q17 0 29.5 -12.5t12.5 -29.5q-1 -18 -13 -30t-29 -12z" />
    <glyph glyph-name="uniE61C" unicode="&#xe61c;" 
d="M1023 414q-18 68 -61.5 118.5t-98.5 74t-116.5 23.5t-114 -24t-93 -77.5t-52.5 -128.5q20 53 75 89q79 53 170 30l-1 -9q-42 11 -85.5 3.5t-79.5 -31.5q-55 -35 -74 -93q-3 -5 -6 -13h-2q1 4 1.5 12t1.5 12q-3 -7 -6 -21q-2 1 -5.5 3t-5.5 4q7 -7 11 -10v-2h2l3 -3l-3 3
v0v3q1 0 1.5 -0.5t1.5 -0.5h-2v-5v0v0v0l-3 2v0q-14 6 -22 10q-48 38 -62 99q-26 93 24 171l8 -4q-23 -36 -29.5 -80t4.5 -85q18 -66 67 -100q-40 43 -25 100t75 84q26 12 46.5 44.5t24.5 69t-14 69.5q-28 40 -19 80.5t54 63.5q-72 5 -134 -21t-101.5 -70.5t-59 -103
t-13 -116t45.5 -112t107 -89.5q12 -9 19 -12q-1 -1 -5 -4t-5 -5q-54 -24 -104 7.5t-57 96.5q-4 46 -55 84.5t-101 25.5q-48 -13 -83 7.5t-44 69.5q-20 -50 -21.5 -100.5t12.5 -93.5t41 -80.5t62.5 -63t79 -39t88 -11.5t91.5 23.5t88 62.5q-47 -32 -113 -29q-94 4 -156 77
l6 4q28 -33 67.5 -52.5t82.5 -21.5q68 -2 116 32q4 1 13 7h1v2h2l1 1l-1 -1q-2 -1 -2 -2v0l-17 -17q11 6 19 14q1 -2 2 -5.5t2 -5.5q7 -58 -38 -96t-109 -25q-45 9 -97.5 -27t-56.5 -87q-3 -50 -33 -77t-80 -20q41 -34 88.5 -51.5t93 -17.5t89.5 14t79.5 39.5t61.5 62.5
t38 79.5t6 94t-32 102.5q-2 11 -8 22q2 0 6.5 0.5t6.5 0.5q58 -11 79.5 -65.5t-11.5 -112.5q-10 -18 -11.5 -45t6 -53.5t25.5 -49.5t42 -33q46 -18 62 -54.5t-5 -82.5q60 38 95 95t41 116.5t-13 117.5t-58.5 100.5t-103 64t-138.5 10.5q-16 0 -23 -2q0 2 1 6.5t2 6.5
q28 51 87 55t104 -44q31 -34 93 -35.5t98 37.5q31 40 71 44.5t78 -30.5z" />
    <glyph glyph-name="uniE61D" unicode="&#xe61d;" horiz-adv-x="1084" 
d="M947 691h-203v137q0 28 -19.5 48t-47.5 20h-271q-28 0 -48 -20t-20 -48v-137h-203q-56 0 -95.5 -40t-39.5 -96v-546q0 -56 40 -96.5t95 -40.5h812q56 0 96 40.5t40 96.5v546q0 56 -40 96t-96 40zM406 828h271v-137h-271v137zM812 214h-203v-205h-135v205h-203v136h203
v205h135v-205h203v-136z" />
    <glyph glyph-name="uniE61E" unicode="&#xe61e;" 
d="M283 319q77 0 144 30q47 82 130 130q9 27 9 54q0 25 -9 50q-22 -71 -98.5 -117t-175.5 -47q-99 0 -175.5 46t-99.5 117q-8 -26 -8 -51q0 -88 83 -150.5t200 -61.5zM283 168q49 0 97 13q1 54 19 106q-56 -19 -116 -19q-99 0 -175.5 46t-99.5 116q-8 -25 -8 -50
q0 -88 83 -150.5t200 -61.5zM283 19q64 0 121 21q-17 45 -23 93q-48 -14 -98 -14q-99 0 -175.5 46t-99.5 117q-8 -26 -8 -51q0 -88 83 -150.5t200 -61.5zM283 -27q-99 0 -175.5 46t-99.5 116q-8 -25 -8 -50q0 -88 83 -150.5t200 -61.5q110 0 191 56q-31 33 -52 72
q-65 -28 -139 -28zM283 469.5q117 0.5 199.5 63t82.5 151t-82.5 150.5t-199.5 62t-200 -63t-83 -151t83 -150.5t200 -62zM191 748h182l9 -117h-201zM661 -15q-56 -19 -102 -58q76 -53 169 -53q92 0 167 52q-107 101 -234 59zM662 357q127 -42 235 59q-76 54 -169 54
q-94 0 -170 -55q49 -40 104 -58zM970 342q-41 -48 -59 -106q-42 -128 58 -236q54 77 54 172q0 93 -53 170zM542 237q-18 55 -58 103q-52 -75 -52 -168q0 -94 53 -170q99 107 57 235zM878 248q22 68 70 123q-11 12 -24 24q-87 -85 -190 -85q-41 0 -84 14q-67 22 -120 69
q-12 -11 -24 -24q47 -54 69 -121q49 -150 -68 -274q13 -14 24 -24q54 47 119 68q150 50 273 -70q13 12 24 24q-119 125 -69 276zM800 98h-146v147h146v-147z" />
    <glyph glyph-name="uniE61F" unicode="&#xe61f;" horiz-adv-x="1048" 
d="M548 -29q-1 46 5 86.5t16 64.5t19.5 41.5t16.5 24.5l7 6q77 -5 136 16q42 16 77 97q22 53 13 56q-1 1 -2 0q-7 -4 -40 2t-63.5 10.5t-56.5 -4.5q-26 -12 -45.5 -51.5t-27 -68t-7.5 -33.5l-47 -32q-4 44 9 83.5t33.5 64t41.5 43t36 26.5l16 8q18 -8 68.5 -4.5t81.5 14.5
q34 12 74 95q34 68 23 80q-3 3 -8 1q-23 -8 -38.5 -3.5t-49 10t-64.5 0.5q-21 -3 -40 -20t-31.5 -38.5t-22 -43t-13.5 -36.5l-4 -14l-136 -129l8 169q136 73 184 160q35 64 -9 186q-20 56 -29 58q-1 0 -1 -3q1 -8 -16 -18.5t-42.5 -24t-52.5 -31.5t-50 -47t-31 -64
q-13 -64 -7.5 -110t17.5 -72l13 -26l-16 -105q-4 9 -15.5 29.5t-22.5 35.5l-10 16q-12 97 -48 184q-10 25 -33.5 41.5t-50 22.5t-51.5 8.5t-41 1.5l-16 -1q-1 -18 0 -46t10.5 -86.5t29 -85t65.5 -42.5t82 -19l37 -3q23 -23 35 -83t12 -109l1 -49l-56 48q-6 10 -16.5 25
t-39.5 47.5t-56 48.5q-44 25 -137 -10q-56 -21 -58 -35q0 -2 3 -4q8 -3 19 -22.5t22.5 -42t32.5 -46t46 -33.5q15 -6 32.5 -7.5t34 1t33 6.5t30 9.5t24 10.5t16.5 8.5t5 3.5q82 -40 57 -248q-249 -5 -469 -97h1047q-8 3 -24 9.5t-68 22t-107 28t-137 24t-163 14.5z" />
    <glyph glyph-name="uniE620" unicode="&#xe620;" horiz-adv-x="1089" 
d="M786 699v162q0 14 -10.5 24.5t-24.5 10.5h-716q-14 0 -24.5 -10.5t-10.5 -24.5v-241q0 -14 10.5 -24.5t24.5 -10.5h354q60 59 138.5 91.5t166.5 32.5q48 -1 92 -10zM349 540h-314q-14 0 -24.5 -10.5t-10.5 -25.5v-240q0 -15 10.5 -25.5t24.5 -10.5h225q-3 25 -3 44
q1 150 92 268zM267 183h-232q-14 0 -24.5 -10.5t-10.5 -24.5v-241q0 -14 10.5 -24.5t24.5 -10.5h484q-96 42 -163.5 124.5t-88.5 186.5zM694 666q-107 0 -197.5 -52.5t-143.5 -143.5t-53 -198t53 -198t143.5 -143.5t197.5 -52.5t198 52.5t143.5 143.5t52.5 198t-52.5 198
t-143.5 143.5t-198 52.5zM867 294v-48h-141v-62h141v-47h-141v-116h-63v116h-142v47h142v62h-142v48h109l-131 229h73l122 -222l122 222h73l-131 -229h109z" />
    <glyph glyph-name="uniE621" unicode="&#xe621;" horiz-adv-x="1064" 
d="M858 279q42 0 80 -16q37 -16 65 -44t44 -65q17 -37 17 -78q0 -43 -17 -80q-16 -37 -44 -65q-28 -27 -65 -43t-80 -16t-80 16t-65 43q-28 28 -44.5 65t-16.5 80q0 41 17 78q16 38 44 65q28 28 65 44q38 16 80 16zM985 93q5 5 10 16q5 9 -3 16l-8 10q-7 7 -9 8q-10 6 -18 2
t-17 -13l-42 -42q-28 -27 -40 -39q-6 -6 -14 -8q-9 -1 -13 5l-9 9q-8 9 -12 14l-13 15q-1 2 -3 4l-4 4l-1 1q-6 5 -13 7q-7 1 -14 -6l-5 -4q-4 -3 -7 -7l-2 -3l-4 -2l-2 -3l-4 -4q-14 -15 4 -34q4 -5 14 -16q13 -14 20 -21l6 -8l8 -7l7 -7q11 -12 17 -17q7 -7 21 -7
q13 1 20 8q14 13 30 29l34 35q21 19 36 35q8 9 30 30zM0 0q0 -24 19 -41.5t45 -17.5h586q-39 61 -39 134q0 103 72.5 175t174.5 72q51 0 97 -19v147h-64v383v63h-827v-63v-383h-64v-450v0zM128 769h66h544h90v-319h-700v319zM191 578h573v-64h-573v64zM191 705h573v-63h-573
v63z" />
    <glyph glyph-name="uniE622" unicode="&#xe622;" horiz-adv-x="1091" 
d="M984 52q-3 11 -8 33t-7 33q34 22 52 87t1 117q-35 107 -147 142q-51 16 -85 8q-78 -17 -120 -59t-60 -120q-10 -43 2 -83q12 -42 34 -71q0 -1 9.5 -11t11.5 -19q-9 -12 -15 -57h-448q-11 0 -43.5 -1t-53.5 -1.5t-45.5 2.5t-34.5 10q-10 8 -16.5 21t-8.5 33t-2 36t1 42
t1 37v472q0 12 -1 39.5t-1 45t2 39.5t8.5 36.5t17.5 21.5q3 2 7.5 4t10.5 3t10 2t12.5 1t11.5 0.5t14 0.5h12h151h599h130h17h19q6 0 15 -1t15 -4q29 -12 38 -46v-569v-131v-11v-10v-10q0 -7 -0.5 -10.5t-1.5 -8.5t-2.5 -8.5t-3.5 -6.5q-13 -18 -35 -23t-63 -5zM204 714
q-2 -2 -8 -6.5t-8.5 -8t-2.5 -11.5q-2 -2 0 -17q1 -1 7.5 -8t11.5 -9h168h348q14 0 56 -1.5t70.5 -0.5t50.5 7q1 2 3 4.5t3 4t2.5 5t1.5 7.5q2 2 0 17q-2 1 -8 8t-11 9h-181h-503zM325 593q-2 -2 -6 -4.5t-6.5 -5t-4.5 -7.5q-6 -7 0 -29q10 -7 25 -10t24.5 -3.5t33.5 0
t32 0.5h251q7 0 23.5 -1t28 -1t25 1t22 5.5t11.5 12.5q6 7 0 30q-10 6 -28.5 9.5t-32 4t-41 -0.5t-36.5 -1h-321zM801 414l49 -2q37 -10 68.5 -37.5t47 -68.5t-2.5 -91q-12 -31 -30 -51q-3 -3 -11 -8.5t-12.5 -11.5t-5.5 -14q7 -11 13 -45t8 -39q5 -17 13.5 -54t14.5 -56
q14 -47 16 -63h-2q-3 3 -8.5 5t-12 4t-10.5 3.5t-35.5 14t-47.5 19.5q-2 1 -11 6t-16.5 7.5t-13.5 1.5q-8 -2 -24 -11t-20 -11q-15 -6 -48.5 -19t-51.5 -21v5q8 11 14 44.5t7 39.5q6 17 14 54t14 56q15 51 17 67q-53 33 -63 100t31 122q20 27 64 44q13 5 35 10z" />
    <glyph glyph-name="uniE623" unicode="&#xe623;" 
d="M72 195h572v194l379 -266l-379 -250v179h-572q-30 0 -51 21t-21 50.5t21 50.5t51 21zM952 702h-572l-1 194l-379 -266l379 -251v179h573q29 0 50 21t21 51t-21 51t-50 21z" />
    <glyph glyph-name="uniE624" unicode="&#xe624;" 
d="M35 -6v170q0 24 11 41t26 17h880q15 0 26 -17t11 -41v-170h-954zM644 400v-11q0 -33 5 -63h78q8 0 14 -5.5t6 -14t-6 -14t-14 -5.5h-413q-8 0 -13.5 5.5t-5.5 14t5.5 14t13.5 5.5h61q5 30 5 63v21q-57 36 -90 95t-33 128q0 109 77.5 186t186.5 77t186 -77t77 -186
q0 -75 -38.5 -137.5t-101.5 -95.5zM92 -58h838q14 0 24.5 -10t10.5 -24.5t-10.5 -25t-24.5 -10.5h-838q-14 1 -23.5 11t-9.5 24t9.5 24.5t23.5 10.5z" />
    <glyph glyph-name="uniE625" unicode="&#xe625;" horiz-adv-x="1106" 
d="M848 -60h20v-4h-20v4zM848 -35h20v-5h-20v5zM787 7h16v-4h-16v4zM261 51q-3 -9 -6 -16l12 -11q6 13 9 32h-13q-1 -2 -2 -5zM754 72l-4 -6h12l-2 6h-6zM747 55v9l-8 -9h8zM796 72l2 -10h-12v-7h19v-24h-19v-4h19v-7h18v4h-14v31h14v2l-19 15h-8zM845 72l-3 -6h12l-2 6h-7z
M1103 41q-7 18 -22.5 32t-29 20t-40.5 15.5t-38 14.5q-21 9 -81.5 35t-91.5 38q-8 3 -24 7l-24 6q-5 4 -10.5 10.5t-11.5 17.5l-9 17q-3 5 -9 19l-7 14q-20 3 -31 5q1 18 14.5 34.5t16.5 25.5t4.5 35t7.5 37q4 8 17 15t17 12q12 16 16 45q10 56 -3 84q-2 5 -5.5 11t-5 10
t-2.5 12q-1 13 2.5 58t3.5 47q1 28 -0.5 39t-8.5 40q-11 34 -29 44l-35 6l-23 21q-31 19 -64.5 25.5t-67.5 0t-53.5 -12.5t-47.5 -17q-59 -20 -84 -80t-3 -168q3 -15 -5 -31t-8 -21q0 -1 1.5 -22t3 -31t5 -27t9.5 -28t14 -16q1 -1 7 -2.5t11 -2.5l5 -1l9 -90q3 -8 15 -21.5
t15 -29.5l-23 -6q-31 -66 -47 -77q-8 -2 -24 -6.5t-24 -6.5q-30 -13 -89.5 -38.5t-82.5 -35.5q-11 -5 -38 -14t-40.5 -15.5t-29.5 -20.5t-22 -32q0 -12 -1.5 -77t-1.5 -92h486l35 243l-30 63l69 32l58 -32l-32 -64l56 -242h464q0 27 -1.5 91t-1.5 78zM238 -92l-36 31
q27 15 45 41l-15 14q-9 -15 -11 -14l-23 40q30 49 38 95l40 -3l-4 -16h49q0 -131 -83 -188zM402 -13q-1 1 -3 2q-21 14 -32 19v-99h-43v207h43v-57q25 -13 48 -26zM914 72h-25l2 -6h6v-12h15v-30h-15v-4h17v-28h-106v-19h-14l17 -14v29h96v-79h-39v4h-19v-4h-38v36l-14 -20
l-12 10v-26h-37v23q-9 -9 -22 -16l-18 32q20 13 30 25h-27v30h36v4h-26v20h26v4h-35v24h19l-22 22q16 18 26 39l38 -3l-2 -7h43v-15q7 10 11 25l37 -2l-2 -8h53zM856 59h8v-5h-8v5zM856 24h8v-5h-8v5z" />
    <glyph glyph-name="uniE626" unicode="&#xe626;" horiz-adv-x="1036" 
d="M950 -128l85 3q0 8 -1 20.5t-7 47t-17 62t-34.5 55.5t-55.5 38q-23 7 -71 21t-75 22.5t-59.5 20.5t-48 22.5t-15.5 20.5v72q0 -4 3.5 -9t32 -6t79.5 15l115 36q-3 3 -8 8.5t-18.5 23.5t-23.5 38t-18 49.5t-8 60.5q0 32 -0.5 50.5t-2.5 54t-6 59.5t-12.5 56.5t-20.5 55
t-31 45.5t-42 37q-79 49 -173 45q-94 4 -172 -45q-24 -15 -42.5 -37.5t-30.5 -45.5t-20.5 -55t-12.5 -56t-6.5 -59.5t-2.5 -53.5v-51q0 -31 -8 -60.5t-19 -50t-22.5 -37t-19.5 -24.5l-8 -8l115 -36q51 -16 80 -15t32 6t3 9v-72q0 -10 -15 -20.5t-47.5 -22.5t-60 -20.5
t-75 -22.5t-70.5 -21q-32 -10 -56 -38t-34.5 -56t-17 -62t-7 -46.5t-0.5 -20.5q32 -1 85 -3h865z" />
    <glyph glyph-name="uniE627" unicode="&#xe627;" horiz-adv-x="1075" 
d="M537 711l-436 -436v-353q0 -20 14.5 -35t35.5 -15h470v403h202v-403h100q21 0 36 15t15 35v353zM453 73h-201v202h201v-202zM1024 308q-19 0 -34 14l-451 451l-2 1l-451 -451q-15 -15 -35.5 -15t-35.5 15t-15 36t16 36l485 485q15 16 36 16h3h2h1q18 -2 31 -16l198 -198
v46q0 21 15 36t35.5 15t35.5 -15t15 -36v-147l187 -188q14 -14 14 -34q0 -21 -14.5 -36t-35.5 -15z" />
    <glyph glyph-name="uniE628" unicode="&#xe628;" 
d="M382 716q37 0 64 26.5t27 63.5t-26.5 63.5t-64.5 26.5t-64.5 -26.5t-26.5 -63.5t26.5 -63.5t64.5 -26.5zM914 100l-155 265q-14 24 -43 25h-227l-3 80h165q17 1 29 12.5t12 28.5t-12 28.5t-29 12.5h-169l-6 65q-3 36 -30 60t-63 22t-60 -29t-22 -63l16 -273
q3 -36 29.5 -59t62.5 -23h294l120 -207q11 -17 32.5 -22.5t40.5 5.5q18 11 23.5 31.5t-5.5 40.5zM440 -57q-111 0 -190 78.5t-79 189.5q0 59 25 111.5t70 90.5l-6 84q-73 -46 -117 -121.5t-44 -164.5q0 -92 46 -170t124.5 -123.5t170.5 -45.5q102 0 186 55.5t125 145.5
l-48 82q-20 -91 -93.5 -151.5t-169.5 -60.5z" />
    <glyph glyph-name="uniE629" unicode="&#xe629;" 
d="M801 235q-24 0 -45 -9q-1 0 -3 3l-288 286q-30 30 -72 19h-1h-1t-1 -1q-14 -4 -26 -14q-87 -52 -156 -148t-106 -208t-37 -218q0 -5 -1.5 -37t1.5 -36h554v280l28 -28q7 -7 15 -12q2 -20 17 -34t36 -14q19 0 34 12t18 31h1v10q0 14 9.5 23t22.5 9t22.5 -9t9.5 -23v-245
h85v245q1 49 -33 83.5t-83 34.5zM960 758q-4 13 -33 25.5t-42 9.5l-10 -3l-51 57q-30 33 -52 46q-15 8 -78.5 -2t-128 -32t-78.5 -42q-11 -17 -20 -53l-18 -88l-10 -3q-13 -3 -32 -29t-16 -38q4 -12 15 -18.5t24 -3.5l68 18q12 -65 64 -108.5t119 -43.5q78 0 132.5 54.5
t54.5 131.5q0 32 -11 62l80 21q13 4 19.5 15.5t3.5 23.5zM819 854l5 -7q-2 3 -5 7z" />
    <glyph glyph-name="uniE62A" unicode="&#xe62a;" 
d="M435 -122q4 32 5 43l6 39q4 26 4 31q2 11 4 36q1 9 3.5 27t4 27t3.5 32q1 8 2.5 23.5t2.5 23.5q0 4 1.5 12.5t1.5 13.5q1 6 0 13t-2.5 11.5t-4 13t-3.5 11.5q-4 16 -4 17t2 3.5t3 2.5h99q7 0 5 -6q-2 -7 -5.5 -19t-4.5 -16l-4 -14q-2 -19 3 -48q1 -5 4 -34
q1 -6 2.5 -23.5t2.5 -27.5q0 -3 10 -73q1 -10 4 -33q1 -8 2 -24.5t2 -24.5l4 -30l6 -7q11 46 12 49q3 9 7.5 25t6.5 23q2 5 4.5 16.5t4.5 16.5l9 36q2 6 5 17t4 17q4 15 10 35q2 6 4.5 17.5t4.5 15.5q6 25 10 37l8 35q1 5 4.5 17t5.5 18q1 5 2.5 10.5t3 12t2.5 9.5
q4 13 5 15q8 6 15 3q11 -4 31 -12.5t28 -11.5q11 -4 31.5 -11.5t30.5 -11.5q42 -17 48 -20q36 -14 59 -32q27 -20 37 -46q2 -4 4 -27q0 -6 1.5 -23.5t2.5 -27.5t3.5 -29.5t3.5 -29.5v-1v-2q1 -10 2.5 -29.5t2.5 -29.5q3 -34 4 -42q2 -16 -12 -30.5t-32 -13.5q-94 1 -377 1
q-353 0 -530 -1q-27 0 -38 16q-14 21 -7 52l1 2v3q4 57 4 59q1 7 2 15.5t2.5 18.5t2.5 16v1v1q5 58 5 59q1 5 2 17.5t3 21.5t8 17q18 25 44 42q10 6 22 12t19.5 9t23 9t21.5 8q13 5 37 15t31 13q44 18 58 23q7 2 12.5 -1.5t6.5 -10.5q2 -7 5.5 -19.5t4.5 -17.5t2.5 -10.5
t3 -12t2.5 -10.5q2 -7 6 -20t5 -16l8 -33q9 -34 14 -51l8 -32q10 -35 10 -37l9 -34q1 -7 5 -19.5t5 -16.5q1 -5 2.5 -10.5t3 -12.5t2.5 -10q2 -8 6 -23.5t6 -23.5l3 -2q3 -1 4 -2zM279 639q5 34 12 68q7 37 34 80q35 55 90 84q29 15 53 19q41 6 43 6q16 0 44 -5
q22 -5 40 -12q54 -23 91 -69q27 -35 42 -74q5 -12 12 -47q6 -33 6 -45q0 -20 -6 -61q0 -5 -7 -35q-6 -26 -26 -63q-26 -51 -71 -89q-30 -25 -65 -36q-37 -13 -65 -11q-55 4 -100 35q-43 30 -67 68q-20 32 -33 59q-7 17 -18 55q-1 4 -4 29q-2 14 -5 44z" />
    <glyph glyph-name="uniE62B" unicode="&#xe62b;" horiz-adv-x="1172" 
d="M1060 164q0 -15 11 -25.5t26 -10.5t25.5 10.5t10.5 25.5v330v6l-73 -11v-325zM1097.5 92q-27.5 0 -50.5 -55t-23 -92q0 -30 21.5 -51.5t52 -21.5t52 21.5t21.5 51.5q-1 38 -23.5 92.5t-50 54.5zM1056 563l29 7q38 8 61.5 38t23.5 68.5t-23.5 68.5t-61.5 38l-476 110
q-12 3 -24 3t-24 -3l-476 -110q-38 -8 -61.5 -38t-23.5 -68.5t23.5 -68.5t61.5 -38l84 -20l402 -60zM577 415l-8 1q-1 0 -4 1l-382 57v-237q0 -79 98.5 -130.5t303.5 -51.5t303.5 51.5t98.5 130.5v241l-388 -58q-10 -7 -22 -5z" />
    <glyph glyph-name="uniE62C" unicode="&#xe62c;" 
d="M1010 464q0 -13 -9 -21.5t-21 -8.5h-396q-12 0 -21 8.5t-9 21.5v396q0 12 9 21t21 9h396q12 0 21 -9t9 -21v-396v0zM1010 -98q0 -12 -9 -21t-21 -9h-396q-12 0 -21 9t-9 21v396q0 13 9 21.5t21 8.5h396q12 0 21 -8.5t9 -21.5v-396v0zM476 -98q0 -12 -9 -21t-21 -9h-396
q-12 0 -21 9t-9 21v396q0 13 9 21.5t21 8.5h396q12 0 21 -8.5t9 -21.5v-396zM14 662q0 -47 17 -90q18 -42 51 -76q33 -33 76 -51q43 -17 89.5 -17t89.5 17q43 18 76 51t51 76t18 89.5t-18 89.5t-51 76q-32 33 -76 51q-43 18 -89.5 18t-89.5 -18q-42 -18 -76 -51
q-32 -32 -51 -76q-17 -43 -17 -89z" />
    <glyph glyph-name="uniE62D" unicode="&#xe62d;" 
d="M489 486q66 -8 123 21.5t87 86.5t21 123q-8 68 -58 118t-119 59q-66 9 -123 -21t-86.5 -87t-21.5 -123q9 -69 59 -119t118 -58zM804.5 406.5q0.5 0.5 3.5 2.5q115 99 83 152q-6 9 -14 10t-19.5 -6t-25 -18.5t-32 -26.5t-39.5 -31t-48 -31.5t-56 -28t-65.5 -21
t-74.5 -10.5q-39 2 -76 10t-65.5 20t-55.5 27t-48 30.5t-39.5 29.5t-32 25t-25 17.5t-19.5 5.5t-14 -10q-9 -13 -6 -29t10.5 -30t20.5 -29t25 -25t23 -20t14 -14l15 -14q14 -13 24.5 -25t20.5 -42t9 -64.5t-17 -90.5t-50 -123q-87 -172 -58 -172q16 0 99 67q126 101 185 128
q34 14 60 14q65 0 200 -113q91 -77 100 -84q41 -29 41 0q-1 34 -56 160q-33 76 -46 139t-11 98.5t15 64.5t21.5 38t19.5 17q3 2 3.5 2.5z" />
    <glyph glyph-name="uniE62E" unicode="&#xe62e;" horiz-adv-x="1091" 
d="M1060 315l-462 -208q-33 -14 -52 -14t-51 14l-465 208q-30 17 -30 88q76 -41 72 -36l473 -218l473 218l72 36q3 -24 -5 -52.5t-25 -35.5zM1060 533l-462 -207q-33 -15 -52 -15t-51 15l-465 207q-27 15 -27 50.5t27 52.5l463 243q32 16 53 16t49 -16l462 -243
q19 -9 26 -31.5t0.5 -43.5t-23.5 -28zM545 -70l473 219l72 36q0 -26 -7.5 -53.5t-22.5 -35.5l-462 -207q-33 -15 -52 -15t-51 15l-465 207q-30 17 -30 89q76 -41 72 -36z" />
    <glyph glyph-name="uniE62F" unicode="&#xe62f;" horiz-adv-x="1030" 
d="M896 -128h-763q-53 0 -90.5 37.5t-37.5 90.5v763q0 53 38 93t90 40h768q53 0 90.5 -37.5t37.5 -90.5v-768q0 -52 -40 -90t-93 -38zM774 192h-514q-13 0 -22.5 10t-9.5 23t9.5 23t22.5 10h514q13 0 22.5 -10t9.5 -23q0 -15 -9.5 -24t-22.5 -9zM774 383h-514
q-13 0 -22.5 9.5t-9.5 22.5t9.5 23t22.5 10h514q13 0 22.5 -10t9.5 -23t-9.5 -22.5t-22.5 -9.5zM774 576h-514q-13 0 -22.5 9.5t-9.5 22.5t9.5 23t22.5 10h514q13 0 22.5 -10t9.5 -23t-9.5 -22.5t-22.5 -9.5z" />
    <glyph glyph-name="uniE630" unicode="&#xe630;" horiz-adv-x="1443" 
d="M139.5 896q58.5 0 99 -40.5t40.5 -99t-40.5 -99t-99 -40.5t-99 40.5t-40.5 99t40.5 99t99 40.5zM139 525q59 0 99.5 -40.5t40.5 -99t-40.5 -99t-99 -40.5t-99 40.5t-40.5 99.5q0 56 40.5 97.5t98.5 41.5zM139.5 151q58.5 0 99 -40.5t40.5 -99t-40.5 -99t-99 -40.5
t-99 40.5t-40.5 99t40.5 99t99 40.5zM466 848h885q38 0 64.5 -26.5t26.5 -65t-26.5 -65t-64.5 -26.5h-885q-38 0 -65 26.5t-27 65.5q-2 37 25.5 64t66.5 27zM466 478h885q38 0 64.5 -27t26.5 -65.5t-26.5 -65t-64.5 -26.5h-885q-38 0 -65 26.5t-27 65.5q-2 37 25.5 64.5
t66.5 27.5zM466 103h885q38 0 64.5 -26.5t26.5 -65t-26.5 -65t-64.5 -26.5h-885q-38 0 -65 26.5t-27 64.5q-2 38 25.5 65t66.5 27z" />
    <glyph glyph-name="uniE631" unicode="&#xe631;" horiz-adv-x="1730" 
d="M1730 743l-153 153l-712 -712l-712 712l-153 -153l712 -712l153 -159v0l159 159z" />
    <glyph glyph-name="uniE632" unicode="&#xe632;" horiz-adv-x="1730" 
d="M1730 31l-153 -159l-712 712l-712 -712l-153 159l712 706v6l153 153v0l159 -153v-6z" />
    <glyph glyph-name="uniE633" unicode="&#xe633;" horiz-adv-x="1204" 
d="M1004 548q-10 -9 -34.5 -7t-33.5 12v76h-134l-535 -669h-179q-37 0 -62.5 26t-25.5 63t26 62.5t62 25.5h89l537 671h222v80q10 9 34 6t34 -13l189 -144q9 -9 9 -23.5t-9 -24.5zM179 629h-91q-36 0 -62 26t-26 62q0 37 26 62.5t62 25.5h179l174 -217l-116 -143zM802 137
h134v78q10 10 34 11.5t34 -8.5l189 -144q9 -10 9 -24.5t-9 -23.5l-189 -139q-10 -10 -34 -13t-34 8v78h-222l-174 217l116 144z" />
    <glyph glyph-name="uniE634" unicode="&#xe634;" horiz-adv-x="1027" 
d="M513 -128q-104 0 -199 40.5t-164 109.5t-109.5 164t-40.5 199t40.5 198.5t109.5 163t164 109t199 40.5t199 -40.5t164 -109.5t109.5 -164t40.5 -199q-1 -104 -41.5 -199t-109 -163t-163.5 -108.5t-199 -40.5zM476 436l121 107l-31 -158l60 -35l45 318l-252 -197zM443 367
q0 21 15 36t36.5 15t36.5 -15t15 -36.5t-15 -36.5t-36 -15t-36.5 15t-15.5 37zM513 297l-121 -107l31 158l-58 35l-45 -318l253 197z" />
    <glyph glyph-name="uniE635" unicode="&#xe635;" horiz-adv-x="1042" 
d="M634 791q0 -44 -33.5 -75t-81.5 -31t-81.5 31t-33.5 75t33.5 74.5t81.5 30.5t81.5 -30.5t33.5 -74.5zM951 729q0 -36 -29 -62t-69.5 -26t-69 26t-28.5 62.5t28.5 62.5t69 26t69.5 -26t29 -63zM919 617q-2 0 -3 1t-2 1q-14 11 -35 15l-24 -22l-25 22q-18 -4 -36 -15
q-2 0 -3 -1t-2 -1q-51 -29 -76 -57q-8 13 -19 25t-19.5 19.5t-22.5 18t-19.5 14t-19.5 12.5t-15 9l-5 3q-20 13 -44 17l-27 -27l-27 27q-18 -3 -42 -17l-5 -3q-78 -42 -115 -98q-30 31 -76 57q-1 0 -2 1t-3 1q-14 11 -34 15l-24 -22l-25 22q-18 -4 -37 -15q-1 0 -2 -1t-3 -1
q-16 -10 -25 -15.5t-29.5 -22t-32 -31t-23.5 -39t-13 -50t7.5 -60t30.5 -71.5q10 -17 31 -17q8 0 18 4l5 3v-324q0 -16 12.5 -28.5t31.5 -12.5q18 0 31 11.5t13 29.5v287h5v-284q0 -17 13 -29.5t31 -12.5t31 12t13 30v326q5 -5 10 -8q9 -4 17 -4q21 0 32 14q1 -1 1.5 -2
t1.5 -3.5t2 -4.5q11 -22 39 -22q7 0 22 5q2 0 7 5v-382q0 -20 15.5 -34.5t36.5 -14.5t36 14.5t15 34.5v341h7h3v-336q0 -20 15.5 -34.5t35.5 -14.5q22 0 37 14.5t15 34.5v385q2 -3 12 -8q15 -5 22 -5q28 0 39 22q1 1 2 2.5t1.5 3.5t1.5 4q11 -15 32 -15q7 0 17 5l5 3v-324
q0 -16 13 -28.5t31 -12.5q19 0 31.5 11.5t12.5 29.5v285h5v-285q0 -16 13 -28.5t31 -12.5q19 0 31.5 11.5t12.5 29.5v324q5 -5 10 -8q10 -4 17 -4q10 0 19 4.5t13 12.5q23 37 33 71.5t9.5 60t-12 50t-22.5 39t-31.5 31t-29.5 22t-25 15.5zM91 391q-28 65 0 108v-108z
M189 435l-25 30l25 144l24 -144zM287 391v106q6 -9 9 -25q0 -27 3 -44q0 -16 -12 -37zM404 391q-33 74 0 128v-128zM522 443l-27 34l27 169l27 -169zM639 391v125q29 -54 0 -125zM755 391q-8 15 -13 40q3 14 3 44q6 19 10 24v-108zM853 435l-25 30l25 144l24 -144zM953 391
v106q25 -46 0 -106zM287 729q0 -36 -29 -62t-69.5 -26t-69 26t-28.5 62.5t28.5 62.5t69 26t69.5 -26t29 -63z" />
    <glyph glyph-name="uniE636" unicode="&#xe636;" 
d="M982 266q-57 208 -237 316q-8 4 -22 11.5t-21 11.5l7 8q45 45 61 86q7 23 10 38q6 36 -0.5 58.5t-27.5 39.5q-53 46 -126 18q-4 -4 -8 0q-43 42 -104.5 42t-105.5 -42q-2 -3 -7 -3q-35 16 -74 8q-38 -8 -62 -37.5t-18 -71.5q7 -72 58 -126q3 -4 9.5 -11.5t10.5 -11.5
q-1 0 -2.5 -1t-2.5 -1q-125 -57 -203 -173t-88 -257q-4 -87 13 -154q15 -62 63.5 -102t110.5 -40h597q95 0 149 81q25 38 33 88q12 124 -13 225zM651 140q-5 -5 -20 -5h-86v-28q0 -13 -10 -23q-7 -10 -23 -10q-14 0 -25 8q-10 7 -10 28v27h-84q-12 0 -20 8t-8 18q0 12 8 20
t20 8h84v48h-84q-12 0 -20 7.5t-8 20t8 20.5q7 10 20 10h84v28q-31 35 -41 45q-20 25 -30 35l-18 21q-6 6 -10 22q-4 18 5 31q11 14 28 7q20 -10 25 -15q3 -5 18 -20l58 -66q28 28 38 41l30 30q4 4 9 8.5t7.5 7t3.5 4.5q11 10 26 10q10 0 23 -12q17 -22 -13 -48l-23 -23
q-10 -13 -30 -33q-13 -13 -38 -43v-25h81q18 0 25 -10q8 -8 8 -20.5t-8 -20t-25 -7.5l-81 -3v-45h78q36 0 36 -28q0 -24 -8 -28z" />
    <glyph glyph-name="uniE637" unicode="&#xe637;" 
d="M804 743l-138 -312h-41l147 329h-230v-769q22 -1 94 -21.5t133.5 -39.5t60.5 -19v-39h-644v41q240 78 279 78v772h-218l148 -329h-42l-138 309l-138 -309h-41l150 331v39h3h247q0 38 21.5 65t50.5 27q31 0 52 -27.5t21 -64.5h252v-34l152 -339h-41zM397 390
q0 -78 -50 -134.5t-132 -56.5q-80 0 -130.5 56.5t-50.5 134.5h363zM627 390h363q0 -78 -49.5 -134.5t-131.5 -56.5q-80 0 -131 56t-51 135z" />
    <glyph glyph-name="uniE638" unicode="&#xe638;" 
d="M1018 380q0 -104 -40 -198t-108 -162t-162 -108t-198 -40q-101 -1 -194.5 40t-161 110.5t-108 163.5t-40.5 196q0 101 38.5 195.5t105 165.5t164 112.5t208.5 40.5q102 -2 194 -43t158.5 -109.5t105.5 -163.5t38 -200zM46 388q0 -97 37 -185.5t99.5 -152t149 -101
t182.5 -37.5q93 0 179 37.5t148.5 100.5t99.5 149.5t37 180.5q0 97 -37 185t-100 151.5t-150.5 100.5t-184.5 37q-91 1 -176 -36.5t-147 -100.5t-99.5 -149.5t-37.5 -179.5zM388 178q-4 2 -35 14.5t-45 19.5q-10 7 -10 24v282q0 5 -0.5 13.5t-0.5 15t1 11.5q4 27 27 46
t53 22q42 4 69 -4.5t59 -35.5q6 3 21.5 10.5t23.5 11t20 8t23 6.5q63 13 104 -34q18 -21 22 -54q1 0 0 -147v-147q0 -26 -24 -34q-17 -6 -74 -32q0 4 -1 12t-1 12q0 49 1 148t1 148q0 20 -4 24q-16 16 -32 16q-18 0 -18 -28v-314q0 -24 -4 -28t-28 -4h-68q-24 0 -28 4t-4 30
v276v24v7v7q0 3 -0.5 7t-2 6.5t-4 5.5t-6.5 4.5t-9 2.5q-12 1 -19 -9.5t-7 -30.5q0 -162 2 -244q-2 -24 -2 -72zM380 -12h-38q-37 -1 -38 0q-19 0 -30 14q-44 69 -122 124q-65 48 -56 132l6 114q0 6 2.5 13t5.5 7q13 3 24 -4q15 -11 18 -28q6 -47 10 -136q0 -13 4.5 -19
t17.5 -7q132 -15 208 -62q74 -45 88 -122q3 -19 -1.5 -24.5t-24.5 -5.5q-24 4 -74 4zM632 -12h-80q-12 0 -16 5t-2 17q13 96 120 148q73 34 174 44q13 1 17.5 6.5t4.5 19.5q3 69 12 138q0 12 16 24q12 8 24 4q3 -1 5.5 -8t2.5 -12q4 -92 8 -138q3 -56 -38 -94
q-39 -33 -55 -47t-43.5 -43.5t-45.5 -57.5q-3 -4 -20 -10q-28 4 -84 4zM514 814q34 0 59 -25t25 -59t-25.5 -59t-58.5 -23q-34 0 -59 25.5t-23 60.5q-2 32 23 56t59 24zM114 566q20 -8 51 -21.5t37 -16.5q1 -1 6 -10q-11 -5 -12 -4q-60 25 -74 32q-1 0 -8 20zM934 486
q-9 -2 -26 -6.5t-27 -6.5t-24 -4t-27 -1q12 16 51 23t53 -5zM298 638q-9 10 -31 35t-33 39q-3 3 2 12q0 1 4.5 1t5.5 -1q10 -11 29 -33t29 -33q0 -2 -2.5 -8.5t-3.5 -11.5zM96 500q51 -9 90 -20q1 0 2 -1.5t2 -3.5t2 -3q0 -2 -2 -4t-4 -2q-15 3 -44 10t-44 10q0 8 -2 14z
M352 676q-4 1 -9 1t-7.5 0.5t-3.5 2.5l-48 66v12q10 0 12 -4q4 -4 44 -56q2 -3 5.5 -10t6.5 -12zM838 674q0 -3 0.5 -7t0.5 -6.5t-1 -4.5q-13 -12 -39.5 -33.5t-30.5 -24.5q-4 15 10 30.5t60 45.5zM884 616l-14 -14q-11 -6 -33 -19t-33 -19h-14q1 1 1.5 4t1.5 5t3 3
q10 6 68 38q4 2 20 2zM192 674q44 -36 64 -54q4 -2 4 -14q-10 0 -14 2l-60 48q-2 1 -2 16q6 0 8 2zM148 622l84 -48q5 -5 2 -10q0 -1 -3 -3.5t-5 -2.5q-12 8 -80 52q2 4 2 12zM786 728q12 -24 -60 -86q-5 13 -2 16q9 10 29.5 33.5t32.5 36.5zM814 524q15 6 45 19t45 19
q1 -1 2 -4t2 -4q-11 -14 -40 -24.5t-34 -13.5h-18q0 2 -1 4.5t-1 3.5zM702 706q5 21 6 22q3 5 7 10.5t10.5 14t10.5 13.5q1 -4 2.5 -9.5t2 -7t-0.5 -3.5q-3 -3 -13.5 -20.5t-24.5 -19.5zM702 706v-10q-6 -8 -18 -20q-6 6 -6 8q1 1 4.5 10t7.5 11.5t12 0.5z" />
    <glyph glyph-name="uniE639" unicode="&#xe639;" 
d="M958 -128h-821v137h-100q-14 0 -25.5 11.5t-11.5 25.5v68q0 14 11 23t26 9h100v66h-100q-14 0 -25.5 11.5t-11.5 24.5v69q0 13 11 22t26 9h100v69h-100q-14 0 -25.5 11.5t-11.5 25.5v68q0 14 11 23t26 9h100v68h-100q-14 0 -25.5 11.5t-11.5 25.5v69q0 13 11 22t26 9h100
v137h821q28 0 47 -19t19 -47v-887q0 -30 -18.5 -50.5t-47.5 -20.5zM342 828h-137v-69h37q14 0 23 -9t9 -22v-69q0 -14 -9 -25.5t-23 -11.5h-37v-68h37q14 0 23 -9t9 -23v-68q0 -15 -9 -26t-23 -11h-37v-69h37q14 0 23 -8.5t9 -22.5v-69q0 -14 -9 -25t-23 -11h-37v-69h37
q14 0 23 -9t9 -22v-69q0 -14 -9 -25.5t-23 -11.5h-37v-68h137v890zM766 588l-79 -147l-76 147h-79l92 -163h-76v-63h94v-69h-94v-55h94v-103h85v103h92v55h-92v69h92v63h-74l97 163h-76z" />
    <glyph glyph-name="uniE63A" unicode="&#xe63a;" horiz-adv-x="1157" 
d="M1095 254h-207l-114 193h15q27 0 46.5 19.5t19.5 46.5v317q0 27 -19.5 46.5t-46.5 19.5h-422q-27 0 -46.5 -19.5t-19.5 -46.5v-316q0 -28 19.5 -47.5t46.5 -19.5h15l-114 -193h-207q-25 0 -43 -18t-18 -44v-259q0 -25 18 -43t43 -18h315q25 0 43 18t18 43v82h282v-82
q0 -25 18 -43t43 -18h315q25 0 43 18t18 43v259q0 26 -17.5 44t-43.5 18zM437 108v85q0 25 -18 43t-43 18h-1l115 193h177l114 -193q-26 0 -44 -18t-18 -43v-85h-282z" />
    <glyph glyph-name="uniE63B" unicode="&#xe63b;" horiz-adv-x="1157" 
d="M65 896h1024v-130h-1024v130zM1089 702h-1024l-65 -326v-109h65v-393h107h809h106v393h67v108zM173 -20v287h417v-287h-417zM983 -20h-285v287h283v-287h2z" />
    <glyph glyph-name="uniE63C" unicode="&#xe63c;" horiz-adv-x="1081" 
d="M540 894l178 -321l363 -70l-252 -267l46 -363l-334 156l-335 -156l46 363l-252 268l362 69z" />
    <glyph glyph-name="uniE63D" unicode="&#xe63d;" 
d="M1020 813q-4 -136 -57 -273q-64 -165 -184 -275q-9 -8 -8 -21q2 -15 4.5 -43.5t3.5 -41.5q10 -101 -69 -159q-40 -28 -176 -118q-28 -18 -55.5 -4.5t-31.5 46.5q-7 76 -12 152q-1 19 -4 22.5t-21 6.5q-100 13 -151 96q-25 40 -30 94q-2 12 -15 13q-78 4 -158 10
q-33 3 -46.5 31.5t3.5 57.5q10 15 28.5 43.5t22.5 36.5q10 14 28 43t27 43q52 81 145 82q18 0 106 -10q11 -1 17 6q116 130 300 196q98 35 201 46q62 6 105 -2q14 -2 17.5 -5.5t5.5 -16.5q5 -33 4 -56zM855 580q1 60 -42 105t-103 46q-64 1 -109 -41t-47 -111
q-1 -58 44 -103.5t104 -45.5q63 -1 108 43t45 107zM151 239q22 -1 30 -23q33 -94 119 -142q20 -11 41 -18q18 -6 22 -21.5t-10 -29.5l-41 -41l-42 -42q-15 -15 -32 -9q-19 7 -20 28v25q0 12 -2 13.5t-13 -2.5q-15 -5 -46 -15t-46 -15q-17 -6 -27 1q-22 12 -13 36
q10 32 32 95q3 11 1.5 13t-12.5 2h-27q-19 1 -27 19q-6 18 7 32q13 12 27 27l32 32l28 27q8 9 19 8z" />
    <glyph glyph-name="uniE63E" unicode="&#xe63e;" 
d="M1022 97q0 -41 -7 -74t-18.5 -56.5t-31.5 -40.5t-40.5 -27.5t-51.5 -16.5t-59 -8t-67.5 -1.5t-72 1.5t-79 2.5t-82.5 1.5q-104 0 -198.5 40.5t-163 108.5t-109 162.5t-40.5 198t40.5 197.5t108.5 162t162 108.5t198 40.5q68 0 135.5 -39.5t122.5 -105t103 -149.5
t80.5 -172.5t51 -175t18.5 -157.5z" />
    <glyph glyph-name="uniE63F" unicode="&#xe63f;" 
d="M999 257l-363 -360q-26 -25 -61 -25t-61 25l-514 526v473h475l522 -517q25 -25 25.5 -60.5t-23.5 -61.5zM590 89l29 29l-329 332l-29 -29zM212 767q-35 0 -60 -25.5t-25 -60t25 -60t60 -25.5t60.5 25.5t25.5 60t-25.5 60t-60.5 25.5zM351 511l332 -332l29 30l-332 331z
M471 630l-30 -29l332 -331l29 29z" />
    <glyph glyph-name="uniE640" unicode="&#xe640;" horiz-adv-x="1075" 
d="M1066 -22l-233 436l-56 -39l-13 23l56 39l-226 424q-19 35 -56 35q-18 0 -33.5 -9.5t-22.5 -25.5l-229 -426l50 -40l1 2v1l1 1l1 1v1l1 1v1l1 1v1l1 1v1l1 1v1l1 1l1 2l21 39q-1 -2 -5 -9q-23 -45 -37 -72l-50 40l-233 -432q-20 -34 0 -71q21 -35 56 -35h462v73h22l2 -73
h459q18 0 33.5 9.5t23.5 25.5q20 37 0 71zM538 -1q-22 0 -38 17t-16 40.5t16 41t38 17.5t38 -17.5t16 -40.5q0 -25 -16 -41.5t-38 -16.5zM594 215q0 -21 -17.5 -35.5t-38.5 -14.5q-22 0 -39 14t-17 36v353q0 22 17 39t39 17q21 0 38.5 -17.5t17.5 -38.5v-353z" />
    <glyph glyph-name="uniE641" unicode="&#xe641;" 
d="M571 180v-35h-145v38q-6 145 134 249q137 95 121 194q-15 117 -145 127q-173 6 -204 -176l-155 45q63 289 373 273q272 -15 297 -273q5 -161 -183 -297q-98 -62 -93 -145zM405 45h186v-170h-186v170z" />
    <glyph glyph-name="uniE642" unicode="&#xe642;" horiz-adv-x="1026" 
d="M1024 429q0 15 -10 24.5t-25 9.5h-52q-16 0 -31 11t-20 26l-27 67q-8 14 -5 32.5t14 29.5l38 37q9 10 9 25q0 14 -9 24l-64 63q-9 10 -24 10q-14 0 -24 -10l-38 -37q-11 -11 -29.5 -14t-32.5 5l-66 27q-16 4 -27 19t-11 32v52q0 14 -9.5 24t-24.5 10h-89q-15 0 -24.5 -10
t-9.5 -24v-53q0 -16 -11 -31t-26 -20l-67 -27q-14 -7 -32.5 -4.5t-29.5 13.5l-37 38q-10 10 -25 10q-14 0 -24 -10l-62 -63q-10 -10 -10 -25q0 -13 10 -24l37 -38q12 -11 14.5 -29.5t-5.5 -32.5l-27 -66q-4 -16 -19 -26.5t-31 -10.5h-53q-15 0 -24.5 -10t-9.5 -25v-89
q0 -14 9.5 -24t24.5 -10h53q16 0 31 -11t19 -26l27 -66q8 -15 5.5 -33t-14.5 -30l-37 -37q-10 -10 -10 -25q0 -13 10 -24l63 -63q10 -10 24 -10t25 10l37 37q12 12 30 14.5t33 -5.5l66 -27q15 -4 26 -19t11 -31v-52q0 -15 10 -25t24 -10h89q15 0 24.5 10t9.5 25v52
q0 16 11.5 31t26.5 20l66 27q14 8 32.5 5t29.5 -14l37 -38q10 -9 25 -9q13 0 24 9l63 64q10 9 10 24q0 14 -10 24l-37 38q-12 11 -14.5 29.5t5.5 32.5l27 66q5 16 19.5 27t30.5 11h52q15 0 25 9.5t10 24.5v89v0zM730 385q0 -91 -64 -155t-155 -64t-155.5 64t-64.5 155
t64.5 155.5t155.5 64.5t155 -64.5t64 -155.5z" />
    <glyph glyph-name="uniE643" unicode="&#xe643;" 
d="M11 896h179l306 -771q14 -42 14 -84h4q6 52 21 88l295 767h183l-422 -1024h-155z" />
    <glyph glyph-name="uniE644" unicode="&#xe644;" horiz-adv-x="1152" 
d="M1116 -128h-1080q-15 0 -25.5 10.5t-10.5 25.5v952q0 15 10.5 25.5t25.5 10.5h1080q15 0 25.5 -10.5t10.5 -25.5v-952q0 -15 -10.5 -25.5t-25.5 -10.5zM1088 640h-1024v-704h1024v704zM257 256h128v-127h-128v127zM769 256h127v-127h-127v127zM513 256h128v-127h-128v127
zM513 511h128v-127h-128v127zM257 511h128v-127h-128v127zM769 511h127v-127h-127v127zM1088 832h-1024v-128h1024v128z" />
    <glyph glyph-name="uniE645" unicode="&#xe645;" 
d="M209 384l512 512l92 -92l-512 -512zM301 476l512 -512l-92 -92l-512 512z" />
    <glyph glyph-name="uniE646" unicode="&#xe646;" 
d="M512 -128q-139 0 -257 68.5t-186.5 186.5t-68.5 257t68.5 257t186.5 186.5t257 68.5t257 -68.5t186.5 -186.5t68.5 -257t-68.5 -257t-186.5 -186.5t-257 -68.5zM832 352v64h65v-64h-65zM744 122l-47 47l47 46l46 -46zM707 632l44 44l44 -44l-44 -44zM480 64h64v-65h-64
v65zM512 352h-287q-14 0 -23.5 9t-9.5 23t9.5 23t23.5 9h257v320q0 14 9 23.5t23 9.5t23.5 -9.5t9.5 -23.5v-352q-2 -14 -11.5 -23t-23.5 -9zM220 630l46 46l47 -46l-47 -47zM303 166l-44 -44l-44 44l44 44z" />
    <glyph glyph-name="uniE647" unicode="&#xe647;" 
d="M235 841l472 -464l-459 -450q-7 -7 -7 -16.5t7 -15.5l16 -16q7 -7 16.5 -7t16.5 7l492 482q6 7 6 16t-6 16l-5 4q-2 5 -5 9l-494 483q-7 7 -16.5 7t-16.5 -7l-17 -16q-7 -7 -7 -16t7 -16z" />
  </font>
</defs>
</svg>
